<?xml version="1.0" encoding="UTF-8"?><svg xmlns="http://www.w3.org/2000/svg" xmlns:xlink="http://www.w3.org/1999/xlink" height="27.6" preserveAspectRatio="xMidYMid meet" version="1.0" viewBox="0.7 33.2 92.7 27.6" width="92.7" zoomAndPan="magnify"><g id="change1_1"><path d="M27.2929,37.7138c0.0446-1.4374,0.8785-2.8532,2.1327-3.5878c1.5517-0.909,3.6097-0.7871,5.1235,0.1837 c1.5137,0.9708,2.4674,2.7096,2.6195,4.5015c1.0938-2.1168,4.0362-2.8391,6.2081-1.8593c2.1719,0.9799,3.5347,3.2948,3.8602,5.6551 c0.1625,1.1781,0.1243,2.4526,0.7817,3.4437c0.6573,0.9911,2.409,1.3145,2.9319,0.2464c-0.0089-1.3984-0.0144-2.8216,0.3895-4.1604 s1.2867-2.605,2.5855-3.1234c1.2987-0.5184,3.0107-0.0691,3.6238,1.1878c0.2773-1.4456,0.6746-2.9163,1.5752-4.0805 s2.4118-1.96,3.848-1.6377c1.4361,0.3223,2.5129,2.0276,1.8764,3.3547c1.2177-1.8445,3.936-2.4953,5.857-1.4024 c1.921,1.0929,2.7504,3.7622,1.78699,5.7513c1.0409-0.6622,2.4381-0.5616,3.5354,0.0023c1.09731,0.564,1.9375,1.5261,2.638,2.5417 c0.8618,1.2494,1.5772,2.7451,1.3042,4.23821c-0.3474,1.8996-2.1693,3.1665-3.9719,3.859 c-4.1288,1.58629-8.66039,1.2811-12.89709,2.4067c-1.0187,0.2707-1.9617,0.7904-2.9701,1.0548 c-0.8131,0.2131-1.7048,0.2057-2.537,0.3546c-2.4939,0.44619-5.0189,0.6203-7.5443,0.7779 c-4.3116,0.2691-8.6232,0.5381-12.9347,0.8072c-2.2549,0.1408-4.5828,0.2719-6.7108-0.4868 c-2.7188-0.9692-4.7769-3.3062-6.0259-5.9083c-0.7523-1.5672-1.2457-3.2403-1.6308-4.93131 c-0.5255-2.3077-1.6794-4.3381,0.0644-6.5189c1.0681-1.3358,2.9125-2.0001,4.587-1.6522 C27.3162,38.3968,27.2824,38.0547,27.2929,37.7138z" fill="#4E7F1C"/></g><g id="change2_1"><path d="M92.54,59.12c-0.4,0.71-0.99,1.25-1.68,1.66H5.64c-0.47-0.19-0.91-0.46-1.3-0.81 c-3.68-3.32,0.95-11.58,5.05-7.2c-1.3-2.11-1.03-5.05,0.63-6.89c1.65-1.85,4.55-2.43,6.79-1.37c-0.94-1.9,0.05-4.44,1.95-5.39 c1.89-0.95,4.36-0.36,5.8,1.19c1.44,1.55,1.87,3.9,1.31,5.94c0.4-1.47,2.52-1.91,4.17-1.83c0.57,0.02,1.08,0.1,1.45,0.22 c2.08,0.66,3.67,3.33,4.16,5.36c-0.14-1.13,0.11-2.3,0.66-3.3c0.51-0.94,1.28-1.74,2.22-2.24c1.96-1.04,4.55-0.73,6.2,0.74 c-0.87-2.11-0.26-4.74,1.46-6.24c1.71-1.51,4.4-1.78,6.37-0.64c1.98,1.13,3.1,3.59,2.67,5.83c1.52-2.29,5.24-2.37,7.2-0.44 c1.21,1.19,1.74,2.88,1.67,4.58c-0.04,1.06-0.31,2.12-0.81,3.06c0.69-0.97,1.4-1.97,2.27-2.77c0.44-0.42,0.93-0.78,1.47-1.06 c1.6-0.83,3.85-0.71,4.89,0.76c-0.35-2.33,1.22-4.81,3.49001-5.48C77.67,42.14,80.34,43.36,81.31,45.51 c1.85001-1.48,4.89-0.43,6.04,1.65c1.14,2.08,0.77,4.71-0.23,6.87c1.42-0.92,3.46-0.73,4.7,0.43 C93.05,55.62,93.37,57.64,92.54,59.12z" fill="#6D9826"/></g><g id="change3_2"><path d="M44.92,59.13c-0.42,0.71-1.06,1.25-1.78,1.65H19.48c-1.45-0.88-2.8-2.25-2.71-4.07 c0.06-1.29,0.98-2.5,2.22-2.9c1.23-0.4,2.69,0.04,3.5,1.05c-0.27-1.25-0.4-2.57-0.05-3.8s1.24-2.36,2.47-2.71 c1.22-0.36,2.74,0.26,3.13,1.48c-0.35-1.99,0.36-4.21,1.99-5.4c0,0,0.01,0,0.01-0.01c0.98-0.71,2.28-1.02,3.45-0.68 c1.37,0.39,2.35,1.6,2.82,2.96c0.11,0.3,0.19,0.6,0.24,0.9c0.3,1.71-0.04,3.46-0.37,5.16c0.78-0.72,1.59-1.47,2.6-1.8 c1.01-0.33,2.28-0.14,2.88,0.74c0.51,0.74,0.41,1.76,0,2.55c-0.42,0.79-1.1,1.41-1.76,2c0.89-0.39,1.81-0.79,2.78-0.82 c0.97-0.04,2.02,0.38,2.46,1.25C45.53,57.44,45.35,58.39,44.92,59.13z" fill="#93C808"/></g><g id="change3_1"><path d="M76.87,60.78H56.74c-0.51-0.38-0.96-0.94-1.33-1.75c-0.72-1.56-0.3-3.69,1.23-4.62 c1.28-0.78,3.18-0.35,3.94,0.9c-0.71-1.6-0.78-3.53,0.11-5.02c0.7-1.18,2.06-1.98,3.41-2c0.5-0.02,1,0.07,1.46,0.29 c0.01,0,0.02,0.01,0.03,0.01c1.07001,0.5,1.8,1.55,2.19,2.66c0.38,1.12,0.46,2.31,0.54,3.49c0.38-1.17,0.87-2.36,1.8-3.16 c0.93-0.8,2.39-1.09,3.38-0.37c0.96,0.69,1.17,2.05,0.94,3.21c-0.22,1.15-0.79,2.21-1.09,3.35c0.79-0.24,1.61-0.49,2.43-0.41 c0.83,0.09,1.67,0.59,1.88,1.39C77.86,59.49,77.47,60.29,76.87,60.78z" fill="#93C808"/></g><g id="change1_3"><path d="M42.5928,49.51416c-0.0137,0-0.0274-0.00098-0.0415-0.00342c-0.1363-0.02246-0.2281-0.15137-0.2056-0.2876 c0.1626-0.97851,0.9497-1.82274,1.9141-2.05374c0.8217-0.1982,1.7329,0.064,2.3471,0.6411 c0.3946-0.8613,1.1592-1.5346,2.0752-1.8027c1.0542-0.3071,2.2285-0.0581,3.0645,0.6528c0.105,0.0894,0.1177,0.2471,0.0283,0.3526 c-0.0894,0.105-0.2476,0.1181-0.3525,0.0283c-0.6988-0.5947-1.7193-0.8115-2.5996-0.5542 c-0.8804,0.2578-1.6221,0.9917-1.8897,1.86915c-0.0278,0.09082-0.104,0.15771-0.1973,0.17382 c-0.0966,0.01514-0.1875-0.02246-0.2436-0.09863c-0.4712-0.64254-1.3438-0.96294-2.1162-0.77584 c-0.7744,0.1855-1.4068,0.86373-1.5371,1.64938C42.8184,49.42725,42.7124,49.51416,42.5928,49.51416z" fill="#4E7F1C"/></g><g id="change1_4"><path d="M57.1768,52.13086c-0.0586,0-0.1177-0.02051-0.1651-0.0625c-0.4844-0.42578-1.0683-0.87402-1.73-0.9668 c-0.5756-0.08154-1.2905,0.21533-1.4345,0.78516c-0.0288,0.11426-0.1353,0.19189-0.2525,0.18896 c-0.1186-0.00537-0.2173-0.09228-0.2363-0.20947c-0.1104-0.66797-0.7012-1.22754-1.375-1.30176 c-0.6738-0.0747-1.3721,0.34424-1.6255,0.97168c-0.0517,0.12793-0.1992,0.18994-0.3252,0.13867 c-0.1284-0.05175-0.1904-0.19726-0.1387-0.32519c0.334-0.82861,1.2544-1.37256,2.1441-1.28223 c0.6836,0.0752,1.3027,0.5293,1.6181,1.13623c0.4053-0.4707,1.1031-0.68115,1.6949-0.59716 c0.7925,0.11084,1.4511,0.61181,1.9907,1.08691c0.104,0.09131,0.1138,0.24902,0.0225,0.35254 C57.3149,52.10205,57.2461,52.13086,57.1768,52.13086z" fill="#4E7F1C"/></g><g id="change1_6"><path d="M13.5322,51.27246c-0.0307,0-0.0615-0.00537-0.0918-0.01758c-0.1284-0.05029-0.1914-0.19531-0.1406-0.32422 c0.1841-0.46728,0.4526-1.06738,0.8989-1.5581c0.4634-0.51074,1.0679-0.82178,1.6587-0.85303 c0.4785-0.02978,0.9414,0.14111,1.2749,0.43457c0.2774-0.7832,1.083-1.3437,1.8726-1.4785 c1.0293-0.1748,2.0503,0.2031,2.8252,0.55174c0.126,0.05664,0.1821,0.20459,0.1255,0.33057 c-0.0567,0.12646-0.2046,0.18359-0.3306,0.12549c-0.7109-0.31983-1.6421-0.668-2.5361-0.5147 c-0.7578,0.12896-1.5684,0.77251-1.5572,1.58696c0.0015,0.11817-0.08,0.22168-0.1958,0.24756 c-0.1132,0.02539-0.2334-0.0332-0.2817-0.14111c-0.1812-0.39941-0.668-0.66309-1.1704-0.64356 c-0.46,0.02442-0.9395,0.27588-1.315,0.68995c-0.392,0.43115-0.6357,0.97754-0.8042,1.40576 C13.7261,51.2124,13.6318,51.27246,13.5322,51.27246z" fill="#4E7F1C"/></g><g id="change1_2"><path d="M7.7305,58.68213c-0.0923,0-0.1807-0.05127-0.2242-0.13965c-0.3979-0.80762-0.1879-1.86475,0.4878-2.45898 c0.6001-0.52832,1.5147-0.646,2.2383-0.31592c0.3296-0.67676,0.978-1.1875,1.7202-1.33496 c0.8409-0.167,1.7456,0.14209,2.3081,0.78564c0.0914,0.10401,0.0806,0.26172-0.0234,0.35254 c-0.1035,0.09082-0.2617,0.08154-0.3525-0.02344c-0.4414-0.50439-1.1792-0.75537-1.8345-0.62451 c-0.6567,0.13037-1.2422,0.64453-1.457,1.27832c-0.0249,0.07373-0.0826,0.13135-0.1558,0.15625 c-0.0728,0.0249-0.1548,0.01465-0.2192-0.02783c-0.5679-0.37647-1.3824-0.3208-1.8941,0.12891 c-0.5117,0.45068-0.6709,1.25146-0.3696,1.86328c0.061,0.12402,0.0102,0.27344-0.1138,0.33447 C7.8052,58.67383,7.7676,58.68213,7.7305,58.68213z" fill="#4E7F1C"/></g><g id="change1_5"><path d="M88.2969,59.6626c-0.00439,0-0.0093,0-0.01469-0.00049c-0.1377-0.00781-0.24261-0.12598-0.2348-0.26416 c0.042-0.73145-0.3892-1.46436-1.0494-1.78223c-0.6596-0.31689-1.5019-0.19678-2.0478,0.29053 c-0.06841,0.06055-0.16261,0.0791-0.2471,0.05078c-0.0849-0.02881-0.1484-0.10107-0.1655-0.18945 c-0.1953-1.01904-0.9927-1.91113-1.9834-2.21924c-0.9897-0.30713-2.1533-0.02588-2.8921,0.70215 c-0.0976,0.09619-0.25591,0.09619-0.3535-0.00293c-0.0967-0.09815-0.0957-0.25635,0.0029-0.35352 c0.8662-0.854,2.2305-1.18554,3.3911-0.82324c1.0386,0.32324,1.8955,1.19336,2.23,2.22754 c0.6748-0.4165,1.5625-0.47998,2.2822-0.13281c0.8379,0.40332,1.3853,1.33301,1.3316,2.26172 C88.5386,59.56006,88.4287,59.6626,88.2969,59.6626z" fill="#4E7F1C"/></g><g id="change1_7"><path d="M81.0601,49.89746c-0.08739,0-0.17239-0.0459-0.2183-0.12793 c-0.5991-1.06933-1.95409-1.67432-3.14989-1.40576c-0.21291,0.04736-0.3579,0.11035-0.4556,0.19775 c-0.0976,0.08692-0.1494,0.21631-0.1235,0.30909c0.0361,0.12793-0.0352,0.2622-0.1616,0.30468 c-0.126,0.04151-0.2632-0.02197-0.312-0.14648c-0.2149-0.54981-0.8477-0.92529-1.4273-0.85254 c-0.5854,0.07178-1.104,0.58643-1.1797,1.17187c-0.01801,0.13721-0.14011,0.23536-0.2802,0.21582 c-0.1368-0.01806-0.2334-0.14306-0.2159-0.28027c0.1055-0.81445,0.7998-1.50389,1.6153-1.60349 c0.6054-0.0752,1.229,0.1855,1.6298,0.63962c0.03571-0.04687,0.07671-0.0913,0.1226-0.13183 c0.2153-0.19189,0.4902-0.26999,0.6787-0.31249c1.4024-0.313,2.99271,0.39452,3.6958,1.64989 c0.06741,0.12061,0.0244,0.27295-0.0962,0.34033C81.1436,49.88721,81.1016,49.89746,81.0601,49.89746z" fill="#4E7F1C"/></g><g id="change2_7"><path d="M21.5693,58.22412c-0.0044,0-0.0092,0-0.0141-0.00049c-0.1377-0.00781-0.2432-0.12598-0.2354-0.26367 c0.0337-0.59961,0.4536-1.15674,1.0205-1.35449c0.4502-0.15869,0.9727-0.0791,1.3687,0.18701 c0.3418-0.62012,0.9414-1.0957,1.6289-1.27441c0.8017-0.20899,1.6914-0.0083,2.3252,0.52343 c0.1059,0.08838,0.1196,0.2461,0.0307,0.35205c-0.0878,0.10645-0.2451,0.1211-0.352,0.03077 c-0.5107-0.42823-1.2305-0.59131-1.8779-0.42237c-0.6465,0.16797-1.1963,0.66065-1.4346,1.28467 c-0.0308,0.08154-0.1025,0.14063-0.1885,0.15674c-0.0825,0.01563-0.1728-0.01465-0.2314-0.07959 c-0.2647-0.29688-0.7276-0.41699-1.104-0.28662c-0.3755,0.13086-0.6641,0.51416-0.6866,0.91113 C21.8115,58.12109,21.7012,58.22412,21.5693,58.22412z" fill="#6D9826"/></g><g id="change2_3"><path d="M28.2583,52.28662c-0.0562,0-0.1123-0.01855-0.1587-0.05664c-0.1064-0.08789-0.1221-0.24512-0.0347-0.35205 c0.4097-0.49854,1.0376-0.82227,1.6807-0.86621c0.5723-0.03858,1.1738,0.14599,1.6323,0.50098 c0.7237-0.43506,1.6387-0.52784,2.4356-0.23584c0.1294,0.04785,0.1958,0.1914,0.1484,0.32128 c-0.0483,0.13038-0.1899,0.19581-0.3213,0.14844c-0.7046-0.25928-1.5239-0.15234-2.1377,0.28125 c-0.0967,0.06787-0.2265,0.05957-0.3139-0.02051c-0.3741-0.34619-0.8975-0.53418-1.4092-0.49658 c-0.5083,0.03467-1.0049,0.29053-1.3281,0.68457C28.4019,52.25537,28.3306,52.28662,28.2583,52.28662z" fill="#6D9826"/></g><g id="change2_6"><path d="M38.9678,58.58545c-0.0645,0-0.1294-0.0249-0.1782-0.07471c-0.5132-0.52148-0.9859-0.96875-1.5704-1.16016 c-0.541-0.17822-1.2651-0.05664-1.5385,0.45313c-0.065,0.12207-0.2173,0.16797-0.3384,0.10205 c-0.1216-0.06494-0.1675-0.21631-0.1021-0.33838c0.4107-0.76904,1.4063-0.92968,2.1348-0.69238 c0.6914,0.22705,1.2109,0.71631,1.771,1.28516c0.0967,0.09814,0.0957,0.25684-0.0029,0.35352 C39.0942,58.56152,39.0312,58.58545,38.9678,58.58545z" fill="#6D9826"/></g><g id="change2_4"><path d="M61.3755,57.47852c-0.0596,0-0.1182-0.02148-0.1646-0.06201c-0.9858-0.86377-2.5898-0.93847-3.6513-0.1709 c-0.1123,0.0791-0.2681,0.05518-0.3492-0.05615c-0.081-0.11182-0.0556-0.26806,0.0562-0.34912 c1.1274-0.81543,2.7783-0.81836,3.936-0.05664c0.1582-0.47607,0.5435-0.87842,1.0245-1.03125 c0.623-0.19971,1.3583,0.03955,1.748,0.56543c0.0825,0.11084,0.0591,0.26758-0.0518,0.34961 c-0.1103,0.08203-0.2675,0.05957-0.3496-0.05176c-0.2622-0.35351-0.7758-0.51806-1.1953-0.38672 c-0.4194,0.1333-0.7431,0.56543-0.7529,1.00489c-0.0025,0.09717-0.0606,0.18457-0.1494,0.22363 C61.4438,57.47168,61.4097,57.47852,61.3755,57.47852z" fill="#6D9826"/></g><g id="change2_5"><path d="M71.6196,60.03027c-0.0937,0-0.1841-0.05322-0.2265-0.14404 c-0.3233-0.69336-0.9917-1.21143-1.74419-1.35303c-0.7519-0.13965-1.563,0.10059-2.1152,0.62891 c-0.0996,0.0957-0.2578,0.0918-0.3535-0.00781c-0.0952-0.09961-0.0918-0.25782,0.0078-0.35352 c0.668-0.6377,1.6504-0.92676,2.5532-0.75879c0.9082,0.17041,1.71439,0.79639,2.105,1.63233 c0.0586,0.12548,0.0044,0.27392-0.1206,0.33252C71.6914,60.02295,71.6553,60.03027,71.6196,60.03027z" fill="#6D9826"/></g><g id="change2_2"><path d="M68.0811,56.73242c-0.0054,0-0.0103,0-0.0157-0.00049c-0.1045-0.00634-0.1933-0.07714-0.2236-0.17724 c-0.104-0.34522-0.3784-0.63819-0.71629-0.76465c-0.33691-0.12598-0.7368-0.08594-1.042,0.10596 c-0.1152,0.07421-0.2705,0.03808-0.3447-0.07911c-0.0733-0.11669-0.0381-0.27099,0.0791-0.34472 c0.4345-0.27344,1.0034-0.33057,1.4834-0.1499c0.331,0.12402,0.6201,0.36084,0.8159,0.65673 c0.186-0.2041,0.4302-0.36474,0.7095-0.46142c0.4419-0.1543,0.916-0.12647,1.2998,0.07519 c0.12199,0.06446,0.1689,0.21534,0.1045,0.33789c-0.06451,0.12256-0.2159,0.16895-0.33791,0.1045 c-0.2603-0.13721-0.5899-0.15235-0.9024-0.04541c-0.3135,0.10839-0.5615,0.32519-0.6811,0.59423 C68.269,56.6748,68.1792,56.73242,68.0811,56.73242z" fill="#6D9826"/></g></svg>