<?xml version="1.0" encoding="UTF-8"?><svg xmlns="http://www.w3.org/2000/svg" xmlns:xlink="http://www.w3.org/1999/xlink" height="42.3" preserveAspectRatio="xMidYMid meet" version="1.0" viewBox="2.5 26.6 90.8 42.3" width="90.8" zoomAndPan="magnify"><g id="change1_1"><path d="M92.9742,63.06531c-0.2844,2.7815-2.7025,4.678-5.34959,5.82379H35.8501 c-1.5251-0.8534-2.9159-2.1731-4.0301-3.23989c-2.1809-2.07821-7.2225-0.62421-9.3719-2.7973 c-2.1098-2.1336-2.9-5.8792-3.5006-8.8188c-0.1817-0.87711-0.1264-1.9518,0.0948-3.0738 c0.5058-2.6314,1.9282-5.55521,3.3822-7.08031c2.0703-2.1652,5.642-2.9238,8.2102-1.375 c-1.8333-1.8649-1.4935-5.2154,0.3635-7.0644c1.8491-1.8491,4.7728-2.3153,7.3173-1.6911c2.5366,0.6243,4.7492,2.1889,6.701,3.9352 c0.0553-1.9597,0.1185-3.9589,0.7349-5.8238c0.6085-1.8649,1.8649-3.6191,3.6824-4.354c2.2758-0.9246,4.8993-0.1027,6.9854,1.1932 c4.4726,2.7973,7.4912,8.3999,5.9898,13.4572c3.224-1.8253,6.7168-3.2873,10.3912-3.785 c3.6824-0.5058,7.5702,0.0236,10.74689,1.9438c1.74631,1.0589,3.3504,2.7421,3.3899,4.7887 c0.0158,1.454-0.7585,2.7895-1.5804,3.99051c-2.0229,2.9238-4.4884,5.5394-7.2857,7.7204 c3.0976-0.6559,6.3296-1.3196,9.3877-0.4978C90.5167,57.13081,93.2982,59.92021,92.9742,63.06531z" fill="#4E7F1C"/></g><g id="change2_1"><path d="M55.5184,68.8891H7.1497c-0.6164-0.2766-1.2011-0.6243-1.7305-1.05889 c-2.0546-1.6832-2.9238-4.5358-2.1257-6.9776c0.2845-0.8613,0.8771-1.7542,1.8333-1.9281c0.7665-0.1343,1.5251,0.245,2.1652,0.6638 c1.0904,0.7112,2.0545,1.5804,2.8605,2.5603c-1.8333-3.2794-1.9834-7.3727-0.2686-10.7073 c0.7032-1.3592,1.7937-2.663,3.3346-3.1055c2.1889-0.63221,4.5832,0.719,5.7764,2.5523c0.0159,0.0238,0.0317,0.0474,0.0474,0.0712 c1.1459,1.8253,1.4066,4.0142,1.6358,6.1241c0.648-4.2039,2.7104-8.20241,5.8238-11.27631 c1.9755-1.9518,4.8282-3.6271,7.6018-2.8764c2.6156,0.7112,4.1565,3.4058,4.2277,5.95821 c0.0631,2.5445-1.0194,4.9704-2.1099,7.2936c2.094-1.6436,4.8519-2.5286,7.586-2.4496c2.742,0.0869,5.4445,1.1379,7.4437,2.90009 c1.2565,1.10621,2.2838,2.67091,1.9914,4.25921c-0.3793,2.0861-2.7421,3.224-4.8282,4.0379 c2.173-0.2212,4.441,0.49001,6.0372,1.8965C55.068,67.37191,55.5974,68.1621,55.5184,68.8891z M40.2246,45.3701 c0.2168-1.228,0.6973-2.2807,1.3906-3.0434c0.7891-0.8697,1.8594-1.358,2.9239-1.3155c1.1279,0.0508,2.1523,0.77,2.4912,1.7491 c0.0429,0.124,0.1767,0.1953,0.3017,0.1596c0.127-0.0346,0.2051-0.1616,0.1797-0.2905c-0.0908-0.4546,0.0274-0.958,0.3252-1.3804 c0.2979-0.4223,0.7324-0.7031,1.1914-0.7695c0.4619-0.0679,0.9551,0.0796,1.3604,0.3989c0.4052,0.3203,0.6621,0.7691,0.7041,1.2315 c0.0127,0.1367,0.1142,0.2314,0.2715,0.2265c0.1377-0.0127,0.2392-0.1338,0.2265-0.2715 c-0.0537-0.5981-0.3789-1.1738-0.8926-1.5786c-0.5127-0.4048-1.1435-0.5854-1.7421-0.5019 c-0.5948,0.0864-1.1514,0.4424-1.5284,0.9765c-0.1777,0.253-0.3047,0.5303-0.3769,0.815c-0.5733-0.731-1.499-1.2193-2.4903-1.2637 c-1.1689-0.0527-2.4267,0.499-3.3154,1.4785c-0.7568,0.8325-1.2803,1.9712-1.5127,3.2925 c-0.0244,0.1362,0.0664,0.2656,0.2031,0.2896c0.0147,0.0029,0.0293,0.0039,0.043,0.0039 C40.0977,45.5767,40.2031,45.4912,40.2246,45.3701z M68.2539,50.64791c0.624-1.5581-0.2227-3.55661-1.7764-4.19281 c-1.2109-0.4951-2.7002-0.0987-3.6025,0.8364c-0.0332-0.3643-0.1406-0.7329-0.3232-1.0879 c-0.4053-0.7925-1.1299-1.4023-1.9366-1.6308c-1.4629-0.4131-3.1963,0.2382-4.2099,1.5888 c-0.083,0.1104-0.0606,0.2671,0.0498,0.3501c0.1103,0.0825,0.2685,0.0606,0.3506-0.0503c0.8906-1.1889,2.4052-1.769,3.6728-1.4072 c0.6768,0.1914,1.2852,0.7061,1.6289,1.3774c0.3037,0.5943,0.3604,1.2266,0.1592,1.77981 c-0.0459,0.1275,0.0176,0.2691,0.1445,0.3184c0.1241,0.0493,0.2696-0.0112,0.3213-0.1367 c0.5469-1.31011,2.2393-2.01321,3.5557-1.47511c1.3135,0.5376,2.0293,2.227,1.501,3.54441 c-0.0508,0.1279,0.0117,0.2734,0.1396,0.3247c0.0303,0.0122,0.06149,0.0181,0.0928,0.0181 C68.1201,50.80521,68.2148,50.74561,68.2539,50.64791z M76.874,63.96921c0.2715-1.6416-0.2695-3.3115-1.3799-4.2539 c-1.1377-0.9648-2.83881-1.0586-3.96381-0.2885C71.374,58.541,70.7441,57.71341,69.8496,57.269 c-0.8828-0.43749-2.0078-0.52239-3.1699-0.23629c-1.00591,0.2461-1.9336,0.7197-2.874,1.2246 c-0.1221,0.0655-0.167,0.2168-0.1026,0.3384c0.0664,0.1216,0.2198,0.167,0.3389,0.1021c0.9111-0.4893,1.8076-0.9473,2.7568-1.1797 c1.0479-0.2559,2.0528-0.18611,2.8282,0.1992c0.8798,0.4365,1.4716,1.3428,1.4394,2.2041 c-0.0039,0.103,0.0566,0.1982,0.1514,0.2392c0.0967,0.0391,0.2051,0.0176,0.27731-0.0551 c0.8897-0.9121,2.6065-0.9146,3.6748-0.0093c0.9795,0.8315,1.4551,2.3193,1.21,3.791c-0.0225,0.1362,0.0703,0.2651,0.206,0.2876 c0.0137,0.0024,0.0274,0.0034,0.0411,0.0034C76.7471,64.17821,76.8535,64.09131,76.874,63.96921z M57.3545,53.67191 c0.1309-0.0425,0.2031-0.1836,0.1611-0.315c-0.3965-1.2231-1.5654-2.16791-2.8447-2.2978 c-1.1484-0.1182-2.333,0.4233-3.0254,1.3384c-0.4941-0.6914-1.2773-1.168-2.125-1.2749c-0.9853-0.1255-2.0068,0.2568-2.6699,0.9917 c-0.0928,0.1025-0.084,0.26069,0.0185,0.353c0.1006,0.0928,0.2618,0.0849,0.3526-0.0181c0.5556-0.61621,1.4121-0.935,2.2363-0.8305 c0.8232,0.1035,1.5742,0.6245,1.959,1.3588c0.043,0.0811,0.126,0.1324,0.2178,0.1338c0.0009,0,0.0029,0,0.0039,0 c0.0898,0,0.1728-0.04831,0.2177-0.1264c0.5401-0.9517,1.6729-1.5401,2.7637-1.4287c1.0879,0.11079,2.083,0.9145,2.419,1.955 c0.0341,0.1055,0.1328,0.1729,0.2382,0.1729C57.3027,53.68411,57.3291,53.68021,57.3545,53.67191z" fill="#6D9826"/></g><g id="change1_2"><path d="M15.5596,62.47121c-0.0127,0-0.0264-0.001-0.0391-0.0029c-0.1367-0.022-0.2295-0.1504-0.208-0.2867 c0.1709-1.0708,0.9854-1.9643,1.9795-2.1723c0.8574-0.1817,1.7685,0.2046,2.248,0.8813c0.3995-0.7768,1.1973-1.3427,2.0772-1.4199 c1.0683-0.0952,2.1787,0.564,2.6015,1.5689c0.0538,0.1269-0.0058,0.27339-0.1337,0.3271c-0.125,0.0542-0.2735-0.0059-0.3272-0.1338 c-0.3349-0.79591-1.2363-1.3437-2.0976-1.2642c-0.8604,0.0757-1.6534,0.7681-1.8438,1.6109 c-0.0254,0.1113-0.123,0.19139-0.2373,0.1948c-0.127-0.0117-0.2168-0.0718-0.2471-0.1816 c-0.2148-0.7539-1.1172-1.2637-1.9384-1.0943c-0.7823,0.1641-1.4502,0.9053-1.587,1.7622 C15.7871,62.38381,15.6807,62.47121,15.5596,62.47121z M38.4863,61.998c0.3311-1.14789-0.2793-2.49459-1.3613-3.00239 c-0.8818-0.4141-1.9941-0.231-2.7393,0.3877c-0.1152-0.4849-0.4502-0.9346-0.9189-1.1777 c-0.6035-0.3135-1.3731-0.3013-2.0596,0.0302c-0.5879,0.28519-1.0781,0.7911-1.3447,1.3877 c-0.0557,0.12649,0.001,0.274,0.127,0.3306c0.1259,0.0552,0.2734-0.0005,0.33-0.1265c0.2188-0.4912,0.6221-0.9072,1.1065-1.14161 c0.5351-0.26069,1.1543-0.27339,1.6103-0.03709c0.4834,0.251,0.7774,0.8233,0.6709,1.3032 c-0.0263,0.1172,0.0352,0.23589,0.1446,0.2837c0.1093,0.0459,0.2382,0.0098,0.3066-0.08881 c0.5391-0.79349,1.6865-1.10649,2.5537-0.69919c0.8691,0.40819,1.3594,1.4897,1.0938,2.4116 c-0.0381,0.1328,0.038,0.2715,0.1709,0.3095c0.0234,0.0069,0.0468,0.0098,0.0693,0.0098 C38.3545,62.17871,38.4551,62.10741,38.4863,61.998z" fill="#4E7F1C"/></g></svg>